<?xml version="1.0" encoding="UTF-8"?>
<!-- Generated by jsxcad -->
<!DOCTYPE svg PUBLIC "-//W3C//DTD SVG 1.1 Tiny//EN" "http://www.w3.org/Graphics/SVG/1.1/DTD/svg11-tiny.dtd">
<svg viewBox="-250 -250 500 500" width="500" height="500" xmlns="http://www.w3.org/2000/svg"><path d="M-52.645827647846055,-129.2966188487039L-61.630416138530585,-124.96842877479581L-70.45874804014167,-120.32277624095077zM-52.645827647846055,-129.2966188487039L-70.45874804014167,-120.32277624095077L-87.55479795866142,-110.12737371599283zM-70.45874804014167,-120.32277624095077L-79.10781847688602,-115.37162740144673L-87.55479795866142,-110.12737371599283zM-34.30101768940812,-136.95467765222705L-43.528206138767366,-133.29578017794577L-52.645827647846055,-129.2966188487039zM-15.613450432285694,-143.20870907432172L-52.645827647846055,-129.2966188487039L-87.55479795866142,-110.12737371599283zM-15.613450432285694,-143.20870907432172L-34.30101768940812,-136.95467765222705L-52.645827647846055,-129.2966188487039zM-87.55479795866142,-110.12737371599283L-95.77698209649007,-104.60281870518985L-103.75176938923187,-98.81126639077213zM-15.613450432285694,-143.20870907432172L-24.98805179700845,-140.2624833935724L-34.30101768940812,-136.95467765222705zM-87.55479795866142,-110.12737371599283L-103.75176938923187,-98.81126639077213L-118.86902504971086,-86.48302585412831zM-103.75176938923187,-98.81126639077213L-111.4566169783165,-92.76653796331752L-118.86902504971086,-86.48302585412831zM3.222023341836925,-147.97620285475801L-6.201757177067023,-145.783193881399L-15.613450432285694,-143.20870907432172zM-15.613450432285694,-143.20870907432172L-87.55479795866142,-110.12737371599283L-145.14546848160114,-59.27101865371051z" style="fill:rgb(83,212,212)"/><path d="M-51.67805768076252,-84.50124163208925L-17.949596523932136,-19.881236431062806L-9.919165723998722,-24.18112167071376z" style="fill:rgb(169,53,222)"/><path d="M-43.152914425080745,-89.05156584377562L-9.919165723998722,-24.18112167071376L-1.632913793134872,-27.942463955388355z" style="fill:rgb(157,47,222)"/><path d="M-59.88524494785529,-79.46212899495205L-25.65754751285239,-15.078168060135548L-17.949596523932136,-19.881236431062806z" style="fill:rgb(180,60,222)"/><path d="M-34.37955235253063,-93.0762247187275L-1.632913793134872,-27.942463955388355L6.84081624036599,-31.13326833081615z" style="fill:rgb(145,43,221)"/><path d="M-87.55479795866142,-110.12737371599283L-118.86902504971086,-86.48302585412831L-145.14546848160114,-59.27101865371051z" style="fill:rgb(83,212,212)"/><path d="M-32.9781870531302,-9.810574032072955L-25.65754751285239,-15.078168060135548L-59.88524494785529,-79.46212899495205z" style="fill:rgb(190,67,220)"/><path d="M-25.429286749189234,-96.54149510838057L6.84081624036599,-31.13326833081615L15.432122325814715,-33.724991884529814z" style="fill:rgb(133,39,219)"/><path d="M-118.86902504971086,-86.48302585412831L-125.966546120764,-79.97569589189729L-132.72672182649987,-73.2602176377185z" style="fill:rgb(83,212,212)"/><path d="M-39.84868060232189,-4.120370860714326L-32.9781870531302,-9.810574032072955L-67.70644465508974,-73.9742166116178z" style="fill:rgb(200,75,217)"/><path d="M22.003290859414975,-151.18063625022393L12.632388060783002,-149.77833011512715L3.222023341836925,-147.97620285475801z" style="fill:rgb(83,212,212)"/><path d="M-16.374933325005912,-99.41688154135825L15.432122325814715,-33.724991884529814L24.069673092355682,-35.69268122859883z" style="fill:rgb(121,35,215)"/><path d="M-46.20838526728556,1.9472839855981705L-39.84868060232189,-4.120370860714326L-75.07545213325461,-68.08054917625586z" style="fill:rgb(210,83,214)"/><path d="M-118.86902504971086,-86.48302585412831L-132.72672182649987,-73.2602176377185L-145.14546848160114,-59.27101865371051z" style="fill:rgb(83,212,212)"/><path d="M-7.29069011313623,-101.67523497516225L24.069673092355682,-35.69268122859883L32.68085802935303,-37.01515047405226z" style="fill:rgb(109,33,211)"/><path d="M40.5195645055844,-152.75227945070642L22.003290859414975,-151.18063625022393L3.222023341836925,-147.97620285475801z" style="fill:rgb(83,212,212)"/><path d="M-51.99912069908624,8.344005383856372L-46.20838526728556,1.9472839855981705L-81.92808336927428,-61.827289708761086z" style="fill:rgb(218,92,209)"/><path d="M-132.72672182649987,-73.2602176377185L-139.12715996781162,-66.35294427093649L-145.14546848160114,-59.27101865371051z" style="fill:rgb(83,212,212)"/><path d="M1.7479615950066496,-103.29293748998897L32.68085802935303,-37.01515047405226L41.19194703899242,-37.67520023467665z" style="fill:rgb(97,32,207)"/><path d="M40.5195645055844,-152.75227945070642L31.308097346179668,-152.17461700809915L22.003290859414975,-151.18063625022393z" style="fill:rgb(83,212,212)"/><path d="M-57.16544412053214,15.018198264748188L-51.99912069908624,8.344005383856372L-88.20240945788878,-55.26367023248438z" style="fill:rgb(225,101,204)"/><path d="M3.222023341836925,-147.97620285475801L-15.613450432285694,-143.20870907432172L-7.29069011313623,-101.67523497516225z" style="fill:rgb(83,212,212)"/><path d="M10.66441023632271,-104.2501308141612L41.19194703899242,-37.67520023467665L49.52832718011627,-37.65987890458812z" style="fill:rgb(85,32,201)"/><path d="M-61.65507568275715,21.915086608508844L-57.16544412053214,15.018198264748188L-93.83904973486952,-48.44204073168361z" style="fill:rgb(232,110,198)"/><path d="M75.8642482652095,-150.7609386139973L40.5195645055844,-152.75227945070642L3.222023341836925,-147.97620285475801z" style="fill:rgb(83,212,212)"/><path d="M19.38110946363662,-104.5309687346851L49.52832718011627,-37.65987890458812L57.61476050372827,-36.960799611009705z" style="fill:rgb(74,32,194)"/><path d="M-145.14546848160114,-59.27101865371051L-150.7593572518825,-52.032381721135934L-155.94661485685964,-44.6558778492111z" style="fill:rgb(83,212,212)"/><path d="M-9.919165723998722,-24.18112167071376L-43.152914425080745,-89.05156584377562L-51.67805768076252,-84.50124163208925z" style="fill:rgb(169,53,222)"/><path d="M-1.632913793134872,-27.942463955388355L-34.37955235253063,-93.0762247187275L-43.152914425080745,-89.05156584377562z" style="fill:rgb(157,47,222)"/><path d="M-17.949596523932136,-19.881236431062806L-51.67805768076252,-84.50124163208925L-59.88524494785529,-79.46212899495205z" style="fill:rgb(180,60,222)"/><path d="M6.84081624036599,-31.13326833081615L-25.429286749189234,-96.54149510838057L-34.37955235253063,-93.0762247187275z" style="fill:rgb(145,43,221)"/><path d="M-65.41929782861135,28.976781086329066L-61.65507568275715,21.915086608508844L-98.7815425033342,-41.417832332059696z" style="fill:rgb(237,120,191)"/><path d="M-93.83904973486952,-48.44204073168361L-15.613450432285694,-143.20870907432172L-145.14546848160114,-59.27101865371051zM58.550245087600885,-152.62951905477917L49.609796398925894,-152.90618267254513L40.5195645055844,-152.75227945070642z" style="fill:rgb(83,212,212)"/><path d="M-59.88524494785529,-79.46212899495205L-67.70644465508974,-73.9742166116178L-32.9781870531302,-9.810574032072955z" style="fill:rgb(190,67,220)"/><path d="M15.432122325814715,-33.724991884529814L-16.374933325005912,-99.41688154135825L-25.429286749189234,-96.54149510838057z" style="fill:rgb(133,39,219)"/><path d="M27.819833830097675,-104.12394938184507L57.61476050372827,-36.960799611009705L65.3757473234427,-35.57447137872512z" style="fill:rgb(64,34,187)"/><path d="M-67.70644465508974,-73.9742166116178L-75.07545213325461,-68.08054917625586L-39.84868060232189,-4.120370860714326z" style="fill:rgb(200,75,217)"/><path d="M-51.67805768076252,-84.50124163208925L-43.152914425080745,-89.05156584377562L-15.613450432285694,-143.20870907432172zM-145.14546848160114,-59.27101865371051L-155.94661485685964,-44.6558778492111L-164.95331618589094,-29.56929616603137zM-43.152914425080745,-89.05156584377562L-34.37955235253063,-93.0762247187275L-15.613450432285694,-143.20870907432172z" style="fill:rgb(83,212,212)"/><path d="M24.069673092355682,-35.69268122859883L-7.29069011313623,-101.67523497516225L-16.374933325005912,-99.41688154135825z" style="fill:rgb(121,35,215)"/><path d="M-59.88524494785529,-79.46212899495205L-51.67805768076252,-84.50124163208925L-15.613450432285694,-143.20870907432172zM-34.37955235253063,-93.0762247187275L-25.429286749189234,-96.54149510838057L-15.613450432285694,-143.20870907432172zM-67.70644465508974,-73.9742166116178L-59.88524494785529,-79.46212899495205L-15.613450432285694,-143.20870907432172z" style="fill:rgb(83,212,212)"/><path d="M-68.41349908970531,36.14238270381974L-65.41929782861135,28.976781086329066L-102.97679859317884,-34.2495255919331z" style="fill:rgb(241,129,183)"/><path d="M-75.07545213325461,-68.08054917625586L-81.92808336927428,-61.827289708761086L-46.20838526728556,1.9472839855981705z" style="fill:rgb(210,83,214)"/><path d="M-25.429286749189234,-96.54149510838057L-16.374933325005912,-99.41688154135825L-15.613450432285694,-143.20870907432172zM-75.07545213325461,-68.08054917625586L-67.70644465508974,-73.9742166116178L-15.613450432285694,-143.20870907432172zM75.8642482652095,-150.7609386139973L58.550245087600885,-152.62951905477917L40.5195645055844,-152.75227945070642z" style="fill:rgb(83,212,212)"/><path d="M32.68085802935303,-37.01515047405226L1.7479615950066496,-103.29293748998897L-7.29069011313623,-101.67523497516225z" style="fill:rgb(109,33,211)"/><path d="M-15.613450432285694,-143.20870907432172L-16.374933325005912,-99.41688154135825L-7.29069011313623,-101.67523497516225zM-81.92808336927428,-61.827289708761086L-75.07545213325461,-68.08054917625586L-15.613450432285694,-143.20870907432172z" style="fill:rgb(83,212,212)"/><path d="M35.90201913581178,-103.02226982210186L65.3757473234427,-35.57447137872512L72.73594584763639,-33.50269005794579z" style="fill:rgb(54,37,179)"/><path d="M75.8642482652095,-150.7609386139973L3.222023341836925,-147.97620285475801L1.7479615950066496,-103.29293748998897z" style="fill:rgb(83,212,212)"/><path d="M-81.92808336927428,-61.827289708761086L-88.20240945788878,-55.26367023248438L-51.99912069908624,8.344005383856372z" style="fill:rgb(218,92,209)"/><path d="M-155.94661485685964,-44.6558778492111L-160.68521800986326,-37.16126893387505L-164.95331618589094,-29.56929616603137zM-88.20240945788878,-55.26367023248438L-81.92808336927428,-61.827289708761086L-15.613450432285694,-143.20870907432172z" style="fill:rgb(83,212,212)"/><path d="M41.19194703899242,-37.67520023467665L10.66441023632271,-104.2501308141612L1.7479615950066496,-103.29293748998897z" style="fill:rgb(97,32,207)"/><path d="M3.222023341836925,-147.97620285475801L-7.29069011313623,-101.67523497516225L1.7479615950066496,-103.29293748998897z" style="fill:rgb(83,212,212)"/><path d="M-70.59777266575675,43.34815029447142L-68.41349908970531,36.14238270381974L-106.37567486581057,-26.99857748608009z" style="fill:rgb(244,139,175)"/><path d="M75.8642482652095,-150.7609386139973L67.311688724869,-151.91621270097866L58.550245087600885,-152.62951905477917z" style="fill:rgb(83,212,212)"/><path d="M-88.20240945788878,-55.26367023248438L-93.83904973486952,-48.44204073168361L-57.16544412053214,15.018198264748188z" style="fill:rgb(225,101,204)"/><path d="M-93.83904973486952,-48.44204073168361L-88.20240945788878,-55.26367023248438L-15.613450432285694,-143.20870907432172z" style="fill:rgb(83,212,212)"/><path d="M43.54920058351437,-101.22426435879679L72.73594584763639,-33.50269005794579L79.62071154766815,-30.752927124899333z" style="fill:rgb(44,40,171)"/><path d="M49.52832718011627,-37.65987890458812L19.38110946363662,-104.5309687346851L10.66441023632271,-104.2501308141612z" style="fill:rgb(85,32,201)"/><path d="M-93.83904973486952,-48.44204073168361L-98.7815425033342,-41.417832332059696L-61.65507568275715,21.915086608508844z" style="fill:rgb(232,110,198)"/><path d="M-71.93757256113174,50.527729974045116L-70.59777266575675,43.34815029447142L-108.9335314015088,-19.72925118246589z" style="fill:rgb(246,149,167)"/><path d="M57.61476050372827,-36.960799611009705L27.819833830097675,-104.12394938184507L19.38110946363662,-104.5309687346851z" style="fill:rgb(74,32,194)"/><path d="M50.68354409441522,-98.73384106401258L79.62071154766815,-30.752927124899333L85.95673708292173,-27.33873585471087z" style="fill:rgb(36,45,162)"/><path d="M-164.95331618589094,-29.56929616603137L-168.72942709071273,-21.90173327099335L-171.9924248854576,-14.181415497187595zM-145.14546848160114,-59.27101865371051L-164.95331618589094,-29.56929616603137L-179.51268385711703,16.7318363563374zM-98.7815425033342,-41.417832332059696L-93.83904973486952,-48.44204073168361L-145.14546848160114,-59.27101865371051z" style="fill:rgb(83,212,212)"/><path d="M-98.7815425033342,-41.417832332059696L-102.97679859317884,-34.2495255919331L-65.41929782861135,28.976781086329066z" style="fill:rgb(237,120,191)"/><path d="M-72.40444742547491,57.61250259346643L-71.93757256113174,50.527729974045116L-110.61102129309842,-12.508406913293266z" style="fill:rgb(247,158,158)"/><path d="M92.21996764159042,-147.10791630569665L84.17738493676515,-149.15930882873346L75.8642482652095,-150.7609386139973z" style="fill:rgb(83,212,212)"/><path d="M65.3757473234427,-35.57447137872512L35.90201913581178,-103.02226982210186L27.819833830097675,-104.12394938184507z" style="fill:rgb(64,34,187)"/><path d="M-102.97679859317884,-34.2495255919331L-98.7815425033342,-41.417832332059696L-145.14546848160114,-59.27101865371051zM75.8642482652095,-150.7609386139973L1.7479615950066496,-103.29293748998897L10.66441023632271,-104.2501308141612z" style="fill:rgb(83,212,212)"/><path d="M57.228525219679,-95.56091301696473L85.95673708292173,-27.33873585471087L91.67279200230661,-23.280155976889553z" style="fill:rgb(29,50,153)"/><path d="M-102.97679859317884,-34.2495255919331L-106.37567486581057,-26.99857748608009L-68.41349908970531,36.14238270381974z" style="fill:rgb(241,129,183)"/><path d="M75.8642482652095,-150.7609386139973L10.66441023632271,-104.2501308141612L19.38110946363662,-104.5309687346851zM-106.37567486581057,-26.99857748608009L-102.97679859317884,-34.2495255919331L-145.14546848160114,-59.27101865371051z" style="fill:rgb(83,212,212)"/><path d="M-71.9768235078067,64.53199372518492L-72.40444742547491,57.61250259346643L-111.37486431781234,-5.405179229485975z" style="fill:rgb(246,167,149)"/><path d="M72.73594584763639,-33.50269005794579L43.54920058351437,-101.22426435879679L35.90201913581178,-103.02226982210186z" style="fill:rgb(54,37,179)"/><path d="M107.36615414461656,-141.64803814652095L92.21996764159042,-147.10791630569665L75.8642482652095,-150.7609386139973zM75.8642482652095,-150.7609386139973L19.38110946363662,-104.5309687346851L27.819833830097675,-104.12394938184507zM-164.95331618589094,-29.56929616603137L-171.9924248854576,-14.181415497187595L-179.51268385711703,16.7318363563374zM-108.9335314015088,-19.72925118246589L-106.37567486581057,-26.99857748608009L-145.14546848160114,-59.27101865371051z" style="fill:rgb(83,212,212)"/><path d="M-106.37567486581057,-26.99857748608009L-108.9335314015088,-19.72925118246589L-70.59777266575675,43.34815029447142z" style="fill:rgb(244,139,175)"/><path d="M63.10967635870003,-91.72187571892913L91.67279200230661,-23.280155976889553L96.70058214793124,-18.60407414415321z" style="fill:rgb(22,56,144)"/><path d="M-171.9924248854576,-14.181415497187595L-174.7217541324262,-6.432277066038465L-176.8974628089922,1.3206258821167163zM75.8642482652095,-150.7609386139973L27.819833830097675,-104.12394938184507L35.90201913581178,-103.02226982210186z" style="fill:rgb(83,212,212)"/><path d="M79.62071154766815,-30.752927124899333L50.68354409441522,-98.73384106401258L43.54920058351437,-101.22426435879679z" style="fill:rgb(44,40,171)"/><path d="M-70.64081899940216,71.21441718645502L-71.9768235078067,64.53199372518492L-111.19869196037068,1.5094485171912089z" style="fill:rgb(244,175,139)"/><path d="M-110.61102129309842,-12.508406913293266L-108.9335314015088,-19.72925118246589L-145.14546848160114,-59.27101865371051zM107.36615414461656,-141.64803814652095L99.9602932740934,-144.6045044297073L92.21996764159042,-147.10791630569665zM75.8642482652095,-150.7609386139973L35.90201913581178,-103.02226982210186L43.54920058351437,-101.22426435879679z" style="fill:rgb(83,212,212)"/><path d="M-108.9335314015088,-19.72925118246589L-110.61102129309842,-12.508406913293266L-71.93757256113174,50.527729974045116z" style="fill:rgb(246,149,167)"/><path d="M68.25555611398659,-87.2400724322799L96.70058214793124,-18.60407414415321L100.97571843779403,-13.34454942441448z" style="fill:rgb(17,63,134)"/><path d="M-171.9924248854576,-14.181415497187595L-176.8974628089922,1.3206258821167163L-179.51268385711703,16.7318363563374zM-111.37486431781234,-5.405179229485975L-110.61102129309842,-12.508406913293266L-145.14546848160114,-59.27101865371051z" style="fill:rgb(83,212,212)"/><path d="M85.95673708292173,-27.33873585471087L57.228525219679,-95.56091301696473L50.68354409441522,-98.73384106401258z" style="fill:rgb(36,45,162)"/><path d="M-68.3910666950909,77.5873683593428L-70.64081899940216,71.21441718645502L-110.06396041199758,8.163194338714309z" style="fill:rgb(241,183,129)"/><path d="M132.989762948049,-125.32308558228212L107.36615414461656,-141.64803814652095L75.8642482652095,-150.7609386139973z" style="fill:rgb(83,212,212)"/><path d="M-110.61102129309842,-12.508406913293266L-111.37486431781234,-5.405179229485975L-72.40444742547491,57.61250259346643z" style="fill:rgb(247,158,158)"/><path d="M-111.19869196037068,1.5094485171912089L-111.37486431781234,-5.405179229485975L-145.14546848160114,-59.27101865371051z" style="fill:rgb(83,212,212)"/><path d="M72.59873400394036,-82.146154014849L100.97571843779403,-13.34454942441448L104.43881612409882,-7.543047154343818z" style="fill:rgb(13,71,125)"/><path d="M-176.8974628089922,1.3206258821167163L-178.50048228654978,9.051103838870176L-179.51268385711703,16.7318363563374z" style="fill:rgb(83,212,212)"/><path d="M91.67279200230661,-23.280155976889553L63.10967635870003,-91.72187571892913L57.228525219679,-95.56091301696473z" style="fill:rgb(29,50,153)"/><path d="M-65.23151363923218,83.5785779365838L-68.3910666950909,77.5873683593428L-107.96090705967522,14.483152729604935z" style="fill:rgb(237,191,120)"/><path d="M-110.06396041199758,8.163194338714309L-111.19869196037068,1.5094485171912089L-145.14546848160114,-59.27101865371051zM121.04385856183372,-134.37898840349953L114.40497623476635,-138.238896997458L107.36615414461656,-141.64803814652095z" style="fill:rgb(83,212,212)"/><path d="M-111.37486431781234,-5.405179229485975L-111.19869196037068,1.5094485171912089L-71.9768235078067,64.53199372518492z" style="fill:rgb(246,167,149)"/><path d="M76.07697045494157,-76.47843130100865L104.43881612409882,-7.543047154343818L107.03657898755566,-1.248583233243793z" style="fill:rgb(10,79,115)"/><path d="M96.70058214793124,-18.60407414415321L68.25555611398659,-87.2400724322799L63.10967635870003,-91.72187571892913z" style="fill:rgb(22,56,144)"/><path d="M-107.96090705967522,14.483152729604935L-110.06396041199758,8.163194338714309L-145.14546848160114,-59.27101865371051zM132.989762948049,-125.32308558228212L121.04385856183372,-134.37898840349953L107.36615414461656,-141.64803814652095z" style="fill:rgb(83,212,212)"/><path d="M-111.19869196037068,1.5094485171912089L-110.06396041199758,8.163194338714309L-70.64081899940216,71.21441718645502z" style="fill:rgb(244,175,139)"/><path d="M-179.51268385711703,16.7318363563374L-179.91716039519164,24.334389334840594L-179.69834932755438,31.82924864643897z" style="fill:rgb(83,212,212)"/><path d="M100.97571843779403,-13.34454942441448L72.59873400394036,-82.146154014849L68.25555611398659,-87.2400724322799z" style="fill:rgb(17,63,134)"/><path d="M132.989762948049,-125.32308558228212L127.24979042738896,-130.07190762323012L121.04385856183372,-134.37898840349953z" style="fill:rgb(83,212,212)"/><path d="M-110.06396041199758,8.163194338714309L-107.96090705967522,14.483152729604935L-68.3910666950909,77.5873683593428z" style="fill:rgb(241,183,129)"/><path d="M158.3578733186395,-72.80836460696634L75.8642482652095,-150.7609386139973L43.54920058351437,-101.22426435879679z" style="fill:rgb(83,212,212)"/><path d="M104.43881612409882,-7.543047154343818L76.07697045494157,-76.47843130100865L72.59873400394036,-82.146154014849z" style="fill:rgb(13,71,125)"/><path d="M-179.51268385711703,16.7318363563374L-179.69834932755438,31.82924864643897L-177.33721581057995,46.37280541772669z" style="fill:rgb(83,212,212)"/><path d="M-107.96090705967522,14.483152729604935L-104.8895079877392,20.396612084844737L-65.23151363923218,83.5785779365838z" style="fill:rgb(237,191,120)"/><path d="M179.93873949731082,-16.56303558206942L177.62018044080156,-23.816779678321613L153.5726760558582,-95.29113990754898z" style="fill:rgb(246,166,149)"/><path d="M158.3578733186395,-72.80836460696634L132.989762948049,-125.32308558228212L75.8642482652095,-150.7609386139973z" style="fill:rgb(83,212,212)"/><path d="M107.03657898755566,-1.248583233243793L78.63447332172092,-70.2831211831738L76.07697045494157,-76.47843130100865z" style="fill:rgb(10,79,115)"/><path d="M-164.66456788312018,72.76716083337053L-120.4369845146981,133.91299930905978L-115.56263122481083,139.8470442611907z" style="fill:rgb(28,51,152)"/><path d="M-179.69834932755438,31.82924864643897L-178.84238507113528,39.185880743167544L-177.33721581057995,46.37280541772669zM-145.14546848160114,-59.27101865371051L-179.51268385711703,16.7318363563374L-108.00267409616252,107.29936747315716z" style="fill:rgb(83,212,212)"/><path d="M181.62111511502385,-8.999254184015065L179.93873949731082,-16.56303558206942L155.85246168903547,-88.12816468752263z" style="fill:rgb(247,161,155)"/><path d="M142.94102546196396,-114.532068937775L138.230962445332,-120.13994419976879L132.989762948049,-125.32308558228212zM158.3578733186395,-72.80836460696634L43.54920058351437,-101.22426435879679L50.68354409441522,-98.73384106401258z" style="fill:rgb(83,212,212)"/><path d="M-159.81743550803813,78.60890691156273L-115.56263122481083,139.8470442611907L-110.07027851800524,145.42647385283064z" style="fill:rgb(32,47,158)"/><path d="M-179.51268385711703,16.7318363563374L-177.33721581057995,46.37280541772669L-164.66456788312018,72.76716083337053zM158.3578733186395,-72.80836460696634L50.68354409441522,-98.73384106401258L57.228525219679,-95.56091301696473z" style="fill:rgb(83,212,212)"/><path d="M182.64534487573852,-1.1518880887307121L181.62111511502385,-8.999254184015065L157.45539329866938,-80.62549417888675z" style="fill:rgb(247,155,161)"/><path d="M-107.96090705967522,14.483152729604935L-145.14546848160114,-59.27101865371051L-108.00267409616252,107.29936747315716zM150.64198131837483,-102.09206139925394L142.94102546196396,-114.532068937775L132.989762948049,-125.32308558228212zM158.3578733186395,-72.80836460696634L57.228525219679,-95.56091301696473L63.10967635870003,-91.72187571892913z" style="fill:rgb(83,212,212)"/><path d="M-154.303508073499,84.07985763050087L-110.07027851800524,145.42647385283064L-103.97056278975218,150.61828094985003z" style="fill:rgb(37,44,163)"/><path d="M-177.33721581057995,46.37280541772669L-175.17297186372738,53.357693058396634L-172.3421373957586,60.10751093473899zM158.3578733186395,-72.80836460696634L63.10967635870003,-91.72187571892913L68.25555611398659,-87.2400724322799z" style="fill:rgb(83,212,212)"/><path d="M182.9920374495744,6.949936607092799L182.64534487573852,-1.1518880887307121L158.3578733186395,-72.80836460696634z" style="fill:rgb(246,149,166)"/><path d="M150.64198131837483,-102.09206139925394L147.0882830039788,-108.51133382946847L142.94102546196396,-114.532068937775z" style="fill:rgb(83,212,212)"/><path d="M153.5726760558582,-95.29113990754898L155.85246168903547,-88.12816468752263L179.93873949731082,-16.56303558206942z" style="fill:rgb(246,166,149)"/><path d="M-148.13157549053605,89.14633852302562L-103.97056278975218,150.61828094985003L-97.27782282715953,155.39010761886487z" style="fill:rgb(42,41,169)"/><path d="M158.3578733186395,-72.80836460696634L68.25555611398659,-87.2400724322799L72.59873400394036,-82.146154014849zM-177.33721581057995,46.37280541772669L-172.3421373957586,60.10751093473899L-164.66456788312018,72.76716083337053z" style="fill:rgb(83,212,212)"/><path d="M-115.56263122481083,139.8470442611907L-159.81743550803813,78.60890691156273L-164.66456788312018,72.76716083337053z" style="fill:rgb(28,51,152)"/><path d="M182.64462978978221,15.2744437796379L182.9920374495744,6.949936607092799L158.53893380022396,-64.70488182367146z" style="fill:rgb(245,143,172)"/><path d="M155.85246168903547,-88.12816468752263L157.45539329866938,-80.62549417888675L181.62111511502385,-8.999254184015065z" style="fill:rgb(247,161,155)"/><path d="M158.3578733186395,-72.80836460696634L72.59873400394036,-82.146154014849L76.07697045494157,-76.47843130100865zM158.3578733186395,-72.80836460696634L150.64198131837483,-102.09206139925394L132.989762948049,-125.32308558228212z" style="fill:rgb(83,212,212)"/><path d="M-141.3144297267038,93.77536432518198L-97.27782282715953,155.39010761886487L-90.01034518922721,159.710586029327z" style="fill:rgb(48,39,174)"/><path d="M-110.07027851800524,145.42647385283064L-154.303508073499,84.07985763050087L-159.81743550803813,78.60890691156273z" style="fill:rgb(32,47,158)"/><path d="M-172.3421373957586,60.10751093473899L-168.8399504373429,66.58865435399842L-164.66456788312018,72.76716083337053zM158.3578733186395,-72.80836460696634L76.07697045494157,-76.47843130100865L78.63447332172092,-70.2831211831738z" style="fill:rgb(83,212,212)"/><path d="M181.5898602071668,23.787269199862397L182.64462978978221,15.2744437796379L157.98072984335496,-56.346077384078114z" style="fill:rgb(244,137,177)"/><path d="M157.45539329866938,-80.62549417888675L158.3578733186395,-72.80836460696634L182.64534487573852,-1.1518880887307121z" style="fill:rgb(247,155,161)"/><path d="M155.85246168903547,-88.12816468752263L153.5726760558582,-95.29113990754898L150.64198131837483,-102.09206139925394z" style="fill:rgb(83,212,212)"/><path d="M-133.86916140979287,97.9349267203831L-90.01034518922721,159.710586029327L-82.19045187447968,163.54961109591514z" style="fill:rgb(54,37,179)"/><path d="M158.3578733186395,-72.80836460696634L78.63447332172092,-70.2831211831738L80.22320615280118,-63.61440958466459z" style="fill:rgb(83,212,212)"/><path d="M-103.97056278975218,150.61828094985003L-148.13157549053605,89.14633852302562L-154.303508073499,84.07985763050087z" style="fill:rgb(37,44,163)"/><path d="M-179.51268385711703,16.7318363563374L-164.66456788312018,72.76716083337053L-108.00267409616252,107.29936747315716z" style="fill:rgb(83,212,212)"/><path d="M179.81797606305383,32.45156271220874L181.5898602071668,23.787269199862397L156.6689185598301,-47.7658282561732z" style="fill:rgb(242,131,182)"/><path d="M158.3578733186395,-72.80836460696634L80.22320615280118,-63.61440958466459L80.80425644444288,-56.534438374206395z" style="fill:rgb(83,212,212)"/><path d="M158.3578733186395,-72.80836460696634L158.53893380022396,-64.70488182367146L182.9920374495744,6.949936607092799z" style="fill:rgb(246,149,166)"/><path d="M-125.81726962963188,101.5943831515533L-82.19045187447968,163.54961109591514L-73.84459371047579,166.8787423625765z" style="fill:rgb(60,35,184)"/><path d="M158.3578733186395,-72.80836460696634L155.85246168903547,-88.12816468752263L150.64198131837483,-102.09206139925394zM-104.8895079877392,20.396612084844737L-107.96090705967522,14.483152729604935L-108.00267409616252,107.29936747315716z" style="fill:rgb(83,212,212)"/><path d="M177.3231678143052,41.22813327633821L179.81797606305383,32.45156271220874L154.59297509535332,-39.00079722490971z" style="fill:rgb(240,125,187)"/><path d="M-97.27782282715953,155.39010761886487L-141.3144297267038,93.77536432518198L-148.13157549053605,89.14633852302562z" style="fill:rgb(42,41,169)"/><path d="M158.3578733186395,-72.80836460696634L80.80425644444288,-56.534438374206395L80.34918481671299,-49.11302333441018zM-164.66456788312018,72.76716083337053L-159.81743550803813,78.60890691156273L-154.303508073499,84.07985763050087zM-100.86028877354534,25.832006997124456L-104.8895079877392,20.396612084844737L-108.00267409616252,107.29936747315716z" style="fill:rgb(83,212,212)"/><path d="M-117.18485330194396,104.72480969659462L-73.84459371047579,166.8787423625765L-65.0034288087378,169.67150202979863z" style="fill:rgb(66,34,189)"/><path d="M158.53893380022396,-64.70488182367146L157.98072984335496,-56.346077384078114L182.64462978978221,15.2744437796379z" style="fill:rgb(245,143,172)"/><path d="M158.3578733186395,-72.80836460696634L157.45539329866938,-80.62549417888675L155.85246168903547,-88.12816468752263z" style="fill:rgb(83,212,212)"/><path d="M174.1037734133284,50.07563528044303L177.3231678143052,41.22813327633821L151.74666411252295,-30.09031399083282z" style="fill:rgb(237,120,191)"/><path d="M-95.89520552793,30.719993332024924L-100.86028877354534,25.832006997124456L-108.00267409616252,107.29936747315716z" style="fill:rgb(83,212,212)"/><path d="M-90.01034518922721,159.710586029327L-133.86916140979287,97.9349267203831L-141.3144297267038,93.77536432518198z" style="fill:rgb(48,39,174)"/><path d="M-164.66456788312018,72.76716083337053L-154.303508073499,84.07985763050087L-141.3144297267038,93.77536432518198z" style="fill:rgb(83,212,212)"/><path d="M-108.00267409616252,107.29936747315716L-65.0034288087378,169.67150202979863L-55.70178235363673,171.90381505587712z" style="fill:rgb(73,33,193)"/><path d="M157.98072984335496,-56.346077384078114L156.6689185598301,-47.7658282561732L181.5898602071668,23.787269199862397z" style="fill:rgb(244,137,177)"/><path d="M-90.02827932277316,34.994651914055204L-95.89520552793,30.719993332024924L-108.00267409616252,107.29936747315716z" style="fill:rgb(83,212,212)"/><path d="M170.1626638772834,58.950815750826884L174.1037734133284,50.07563528044303L148.12829397879392,-21.07618929909442z" style="fill:rgb(234,114,195)"/><path d="M-82.19045187447968,163.54961109591514L-125.81726962963188,101.5943831515533L-133.86916140979287,97.9349267203831z" style="fill:rgb(54,37,179)"/><path d="M-98.30617766246903,109.29373095007753L-55.70178235363673,171.90381505587712L-45.97859808527861,173.55425752228462z" style="fill:rgb(79,32,198)"/><path d="M-83.30607902777187,38.59476574002443L-90.02827932277316,34.994651914055204L-108.00267409616252,107.29936747315716zM-154.303508073499,84.07985763050087L-148.13157549053605,89.14633852302562L-141.3144297267038,93.77536432518198z" style="fill:rgb(83,212,212)"/><path d="M156.6689185598301,-47.7658282561732L154.59297509535332,-39.00079722490971L179.81797606305383,32.45156271220874z" style="fill:rgb(242,131,182)"/><path d="M165.50735928932016,67.80879166622807L170.1626638772834,58.950815750826884L143.74108664986647,-12.002483182537231z" style="fill:rgb(230,108,199)"/><path d="M-75.78797450784877,41.46517587052018L-83.30607902777187,38.59476574002443L-108.00267409616252,107.29936747315716zM157.98072984335496,-56.346077384078114L158.53893380022396,-64.70488182367146L158.3578733186395,-72.80836460696634z" style="fill:rgb(83,212,212)"/><path d="M-88.13547168010014,110.68643330890703L-45.97859808527861,173.55425752228462L-35.87679924202716,174.604488242937z" style="fill:rgb(86,32,201)"/><path d="M-73.84459371047579,166.8787423625765L-117.18485330194396,104.72480969659462L-125.81726962963188,101.5943831515533z" style="fill:rgb(60,35,184)"/><path d="M160.15029754978877,76.60336255613606L165.50735928932016,67.80879166622807L138.59345451871906,-2.9152310708373346z" style="fill:rgb(226,102,203)"/><path d="M-164.66456788312018,72.76716083337053L-141.3144297267038,93.77536432518198L-108.00267409616252,107.29936747315716zM-67.54610219543022,43.55813056626888L-75.78797450784877,41.46517587052018L-108.00267409616252,107.29936747315716z" style="fill:rgb(83,212,212)"/><path d="M154.59297509535332,-39.00079722490971L151.74666411252295,-30.09031399083282L177.3231678143052,41.22813327633821z" style="fill:rgb(240,125,187)"/><path d="M-77.5351963782561,111.4592607929902L-35.87679924202716,174.604488242937L-25.443109690575792,175.03955421241255z" style="fill:rgb(94,32,205)"/><path d="M154.59297509535332,-39.00079722490971L157.98072984335496,-56.346077384078114L158.3578733186395,-72.80836460696634z" style="fill:rgb(83,212,212)"/><path d="M-65.0034288087378,169.67150202979863L-108.00267409616252,107.29936747315716L-117.18485330194396,104.72480969659462z" style="fill:rgb(66,34,189)"/><path d="M-58.665009362116976,44.83461721681062L-67.54610219543022,43.55813056626888L-108.00267409616252,107.29936747315716z" style="fill:rgb(83,212,212)"/><path d="M154.10889628305853,85.2874239202334L160.15029754978877,76.60336255613606L132.69917159023126,6.137889955558661z" style="fill:rgb(222,96,207)"/><path d="M-66.55435542676464,111.5975881921638L-25.443109690575792,175.03955421241255L-14.727771188513538,174.84817961031672z" style="fill:rgb(101,32,208)"/><path d="M151.74666411252295,-30.09031399083282L148.12829397879392,-21.07618929909442L174.1037734133284,50.07563528044303z" style="fill:rgb(237,120,191)"/><path d="M-49.240919635357464,45.26560750347344L-58.665009362116976,44.83461721681062L-108.00267409616252,107.29936747315716zM-141.3144297267038,93.77536432518198L-133.86916140979287,97.9349267203831L-125.81726962963188,101.5943831515533z" style="fill:rgb(83,212,212)"/><path d="M147.40568703370653,93.81331548228934L154.10889628305853,85.2874239202334L126.07751968314865,15.107943529145764z" style="fill:rgb(217,91,210)"/><path d="M72.85219807440363,64.39949335613422L80.34918481671299,-49.11302333441018L78.84131478160002,-41.42718905421863z" style="fill:rgb(83,212,212)"/><path d="M-55.70178235363673,171.90381505587712L-98.30617766246903,109.29373095007753L-108.00267409616252,107.29936747315716z" style="fill:rgb(73,33,193)"/><path d="M-39.38067018083275,44.83313681264778L-49.240919635357464,45.26560750347344L-108.00267409616252,107.29936747315716z" style="fill:rgb(83,212,212)"/><path d="M-55.246053907994124,111.09075132870063L-14.727771188513538,174.84817961031672L-3.784235242952919,174.02305373227645z" style="fill:rgb(108,33,211)"/><path d="M154.59297509535332,-39.00079722490971L156.6689185598301,-47.7658282561732L157.98072984335496,-56.346077384078114zM72.85219807440363,64.39949335613422L158.3578733186395,-72.80836460696634L80.34918481671299,-49.11302333441018z" style="fill:rgb(83,212,212)"/><path d="M140.0682260908354,102.13331685941364L147.40568703370653,93.81331548228934L118.75342773447073,23.945163183547834z" style="fill:rgb(212,85,213)"/><path d="M-29.20024004767867,43.53120978103354L-39.38067018083275,44.83313681264778L-108.00267409616252,107.29936747315716z" style="fill:rgb(83,212,212)"/><path d="M148.12829397879392,-21.07618929909442L143.74108664986647,-12.002483182537231L170.1626638772834,58.950815750826884z" style="fill:rgb(234,114,195)"/><path d="M72.85219807440363,64.39949335613422L78.84131478160002,-41.42718905421863L76.27690471096541,-33.56049458842857zM-141.3144297267038,93.77536432518198L-125.81726962963188,101.5943831515533L-108.00267409616252,107.29936747315716z" style="fill:rgb(83,212,212)"/><path d="M-43.66711966159067,109.93227369105102L-3.784235242952919,174.02305373227645L7.331244988241615,172.56101847076414z" style="fill:rgb(116,34,214)"/><path d="M-18.822971554540985,41.36641855270773L-29.20024004767867,43.53120978103354L-108.00267409616252,107.29936747315716z" style="fill:rgb(83,212,212)"/><path d="M-45.97859808527861,173.55425752228462L-88.13547168010014,110.68643330890703L-98.30617766246903,109.29373095007753z" style="fill:rgb(79,32,198)"/><path d="M132.12909782838634,110.20004456256247L140.0682260908354,102.13331685941364L110.75737394919135,32.59941237051082z" style="fill:rgb(206,80,215)"/><path d="M-8.377443208495947,38.358273842015535L-18.822971554540985,41.36641855270773L-108.00267409616252,107.29936747315716zM138.59345451871906,-2.9152310708373346L154.59297509535332,-39.00079722490971L158.3578733186395,-72.80836460696634zM72.85219807440363,64.39949335613422L76.27690471096541,-33.56049458842857L72.6661228990969,-25.60206370552599zM-108.00267409616252,107.29936747315716L2.004859842923782,34.53919893130137L-8.377443208495947,38.358273842015535z" style="fill:rgb(83,212,212)"/><path d="M-31.877732925756874,108.12015703862768L7.331244988241615,172.56101847076414L18.560060913814624,170.46334174017474z" style="fill:rgb(123,36,216)"/><path d="M-108.00267409616252,107.29936747315716L31.467263662969202,18.724207320813615L22.05450463185111,24.659972005460254zM-108.00267409616252,107.29936747315716L12.19206606238995,29.954165386114706L2.004859842923782,34.53919893130137z" style="fill:rgb(83,212,212)"/><path d="M143.74108664986647,-12.002483182537231L138.59345451871906,-2.9152310708373346L165.50735928932016,67.80879166622807z" style="fill:rgb(230,108,199)"/><path d="M-108.00267409616252,107.29936747315716L22.05450463185111,24.659972005460254L12.19206606238995,29.954165386114706z" style="fill:rgb(83,212,212)"/><path d="M123.62567940169507,117.96702256772L132.12909782838634,110.20004456256247L102.12538828765987,41.02068106002134z" style="fill:rgb(200,75,217)"/><path d="M72.85219807440363,64.39949335613422L72.6661228990969,-25.60206370552599L68.03380433692708,-17.6454126743043z" style="fill:rgb(83,212,212)"/><path d="M-19.940901723898644,105.6570432351586L18.560060913814624,170.46334174017474L29.841755196014283,167.73569589284065z" style="fill:rgb(131,38,218)"/><path d="M-35.87679924202716,174.604488242937L-77.5351963782561,111.4592607929902L-88.13547168010014,110.68643330890703z" style="fill:rgb(86,32,201)"/><path d="M-125.81726962963188,101.5943831515533L-117.18485330194396,104.72480969659462L-108.00267409616252,107.29936747315716z" style="fill:rgb(83,212,212)"/><path d="M114.59997170960291,125.38907447714001L123.62567940169507,117.96702256772L92.89881272510284,49.159615908396646z" style="fill:rgb(194,70,219)"/><path d="M-7.921903073762513,102.55033642762676L29.841755196014283,167.73569589284065L41.11458808296791,164.388369578398z" style="fill:rgb(138,40,220)"/><path d="M138.59345451871906,-2.9152310708373346L132.69917159023126,6.137889955558661L160.15029754978877,76.60336255613606z" style="fill:rgb(226,102,203)"/><path d="M72.85219807440363,64.39949335613422L68.03380433692708,-17.6454126743043L62.41987700825965,-9.787031921953334z" style="fill:rgb(83,212,212)"/><path d="M105.0982577211449,132.4228576673055L114.59997170960291,125.38907447714001L83.12404180113194,56.968043527860196z" style="fill:rgb(188,65,220)"/><path d="M148.12829397879392,-21.07618929909442L151.74666411252295,-30.09031399083282L154.59297509535332,-39.00079722490971z" style="fill:rgb(83,212,212)"/><path d="M4.112318092812523,98.81229327616174L41.11458808296791,164.388369578398L52.31611589026563,160.4361541921181z" style="fill:rgb(146,43,221)"/><path d="M62.13865982724363,71.40976003239324L95.1707207937359,139.02733269208252L105.0982577211449,132.4228576673055z" style="fill:rgb(181,61,221)"/><path d="M16.093826266678526,94.45994592362497L52.31611589026563,160.4361541921181L63.383808347476965,155.89829111219598z" style="fill:rgb(153,46,222)"/><path d="M-25.443109690575792,175.03955421241255L-66.55435542676464,111.5975881921638L-77.5351963782561,111.4592607929902z" style="fill:rgb(94,32,205)"/><path d="M72.85219807440363,64.39949335613422L62.41987700825965,-9.787031921953334L55.8794045994896,-2.124774820455146z" style="fill:rgb(83,212,212)"/><path d="M51.04255900305681,77.95735442575601L84.8710064629567,145.1642312595093L95.1707207937359,139.02733269208252z" style="fill:rgb(175,57,222)"/><path d="M27.954390112898004,89.51507916336638L63.383808347476965,155.89829111219598L74.25570561715988,150.79841418631253z" style="fill:rgb(160,49,222)"/><path d="M39.626190814596306,84.00400601460602L74.25570561715988,150.79841418631253L84.8710064629567,145.1642312595093z" style="fill:rgb(168,53,222)"/><path d="M132.69917159023126,6.137889955558661L126.07751968314865,15.107943529145764L154.10889628305853,85.2874239202334z" style="fill:rgb(222,96,207)"/><path d="M72.85219807440363,64.39949335613422L55.8794045994896,-2.124774820455146L48.482322855974914,5.243919620597047zM138.59345451871906,-2.9152310708373346L148.12829397879392,-21.07618929909442L154.59297509535332,-39.00079722490971zM72.85219807440363,64.39949335613422L48.482322855974914,5.243919620597047L40.31263069704692,12.223898266137285z" style="fill:rgb(83,212,212)"/><path d="M-14.727771188513538,174.84817961031672L-55.246053907994124,111.09075132870063L-66.55435542676464,111.5975881921638z" style="fill:rgb(101,32,208)"/><path d="M72.85219807440363,64.39949335613422L40.31263069704692,12.223898266137285L31.467263662969202,18.724207320813615z" style="fill:rgb(83,212,212)"/><path d="M126.07751968314865,15.107943529145764L118.75342773447073,23.945163183547834L147.40568703370653,93.81331548228934z" style="fill:rgb(217,91,210)"/><path d="M-108.00267409616252,107.29936747315716L-98.30617766246903,109.29373095007753L-88.13547168010014,110.68643330890703zM72.85219807440363,64.39949335613422L138.59345451871906,-2.9152310708373346L158.3578733186395,-72.80836460696634z" style="fill:rgb(83,212,212)"/><path d="M-3.784235242952919,174.02305373227645L-43.66711966159067,109.93227369105102L-55.246053907994124,111.09075132870063z" style="fill:rgb(108,33,211)"/><path d="M138.59345451871906,-2.9152310708373346L143.74108664986647,-12.002483182537231L148.12829397879392,-21.07618929909442z" style="fill:rgb(83,212,212)"/><path d="M118.75342773447073,23.945163183547834L110.75737394919135,32.59941237051082L140.0682260908354,102.13331685941364z" style="fill:rgb(212,85,213)"/><path d="M-108.00267409616252,107.29936747315716L72.85219807440363,64.39949335613422L31.467263662969202,18.724207320813615z" style="fill:rgb(83,212,212)"/><path d="M7.331244988241615,172.56101847076414L-31.877732925756874,108.12015703862768L-43.66711966159067,109.93227369105102z" style="fill:rgb(116,34,214)"/><path d="M-108.00267409616252,107.29936747315716L-88.13547168010014,110.68643330890703L-66.55435542676464,111.5975881921638z" style="fill:rgb(83,212,212)"/><path d="M110.75737394919135,32.59941237051082L102.12538828765987,41.02068106002134L132.12909782838634,110.20004456256247z" style="fill:rgb(206,80,215)"/><path d="M18.560060913814624,170.46334174017474L-19.940901723898644,105.6570432351586L-31.877732925756874,108.12015703862768z" style="fill:rgb(123,36,216)"/><path d="M102.12538828765987,41.02068106002134L92.89881272510284,49.159615908396646L123.62567940169507,117.96702256772z" style="fill:rgb(200,75,217)"/><path d="M29.841755196014283,167.73569589284065L-7.921903073762513,102.55033642762676L-19.940901723898644,105.6570432351586z" style="fill:rgb(131,38,218)"/><path d="M-88.13547168010014,110.68643330890703L-77.5351963782561,111.4592607929902L-66.55435542676464,111.5975881921638z" style="fill:rgb(83,212,212)"/><path d="M92.89881272510284,49.159615908396646L83.12404180113194,56.968043527860196L114.59997170960291,125.38907447714001z" style="fill:rgb(194,70,219)"/><path d="M41.11458808296791,164.388369578398L4.112318092812523,98.81229327616174L-7.921903073762513,102.55033642762676z" style="fill:rgb(138,40,220)"/><path d="M126.07751968314865,15.107943529145764L132.69917159023126,6.137889955558661L138.59345451871906,-2.9152310708373346z" style="fill:rgb(83,212,212)"/><path d="M83.12404180113194,56.968043527860196L72.85219807440363,64.39949335613422L105.0982577211449,132.4228576673055z" style="fill:rgb(188,65,220)"/><path d="M-108.00267409616252,107.29936747315716L-66.55435542676464,111.5975881921638L-19.940901723898644,105.6570432351586z" style="fill:rgb(83,212,212)"/><path d="M52.31611589026563,160.4361541921181L16.093826266678526,94.45994592362497L4.112318092812523,98.81229327616174z" style="fill:rgb(146,43,221)"/><path d="M105.0982577211449,132.4228576673055L72.85219807440363,64.39949335613422L62.13865982724363,71.40976003239324z" style="fill:rgb(181,61,221)"/><path d="M63.383808347476965,155.89829111219598L27.954390112898004,89.51507916336638L16.093826266678526,94.45994592362497z" style="fill:rgb(153,46,222)"/><path d="M95.1707207937359,139.02733269208252L62.13865982724363,71.40976003239324L51.04255900305681,77.95735442575601z" style="fill:rgb(175,57,222)"/><path d="M74.25570561715988,150.79841418631253L39.626190814596306,84.00400601460602L27.954390112898004,89.51507916336638z" style="fill:rgb(160,49,222)"/><path d="M84.8710064629567,145.1642312595093L51.04255900305681,77.95735442575601L39.626190814596306,84.00400601460602z" style="fill:rgb(168,53,222)"/><path d="M110.75737394919135,32.59941237051082L126.07751968314865,15.107943529145764L138.59345451871906,-2.9152310708373346zM-66.55435542676464,111.5975881921638L-55.246053907994124,111.09075132870063L-43.66711966159067,109.93227369105102zM-108.00267409616252,107.29936747315716L-19.940901723898644,105.6570432351586L72.85219807440363,64.39949335613422zM110.75737394919135,32.59941237051082L118.75342773447073,23.945163183547834L126.07751968314865,15.107943529145764zM72.85219807440363,64.39949335613422L110.75737394919135,32.59941237051082L138.59345451871906,-2.9152310708373346zM-66.55435542676464,111.5975881921638L-43.66711966159067,109.93227369105102L-19.940901723898644,105.6570432351586zM-43.66711966159067,109.93227369105102L-31.877732925756874,108.12015703862768L-19.940901723898644,105.6570432351586zM92.89881272510284,49.159615908396646L102.12538828765987,41.02068106002134L110.75737394919135,32.59941237051082zM72.85219807440363,64.39949335613422L92.89881272510284,49.159615908396646L110.75737394919135,32.59941237051082zM-19.940901723898644,105.6570432351586L-7.921903073762513,102.55033642762676L4.112318092812523,98.81229327616174zM72.85219807440363,64.39949335613422L83.12404180113194,56.968043527860196L92.89881272510284,49.159615908396646zM-19.940901723898644,105.6570432351586L4.112318092812523,98.81229327616174L27.954390112898004,89.51507916336638zM-19.940901723898644,105.6570432351586L27.954390112898004,89.51507916336638L72.85219807440363,64.39949335613422zM4.112318092812523,98.81229327616174L16.093826266678526,94.45994592362497L27.954390112898004,89.51507916336638zM51.04255900305681,77.95735442575601L62.13865982724363,71.40976003239324L72.85219807440363,64.39949335613422zM27.954390112898004,89.51507916336638L51.04255900305681,77.95735442575601L72.85219807440363,64.39949335613422zM27.954390112898004,89.51507916336638L39.626190814596306,84.00400601460602L51.04255900305681,77.95735442575601z" style="fill:rgb(83,212,212)"/></svg>
