<?xml version="1.0" encoding="UTF-8"?>
<!-- Generated by jsxcad -->
<!DOCTYPE svg PUBLIC "-//W3C//DTD SVG 1.1 Tiny//EN" "http://www.w3.org/Graphics/SVG/1.1/DTD/svg11-tiny.dtd">
<svg baseProfile="tiny" height="14.150000000000007mm" width="14.150000000000007mm" viewBox="0 0 14.150000000000007 14.150000000000007" version="1.1" stroke="black" stroke-width=".1" fill="none" xmlns="http://www.w3.org/2000/svg">
<path fill="#00ffff" stroke="#00ffff" d="M7.075 14.15 L6.63076 14.13604 L6.18827 14.09421 L5.74928 14.02468 L5.31552 13.92773 L4.8887 13.80372 L4.47052 13.65317 L4.06261 13.47665 L3.66659 13.27487 L3.28403 13.04862 L2.91642 12.7988 L2.56523 12.52638 L2.23183 12.23245 L1.91755 11.91817 L1.62362 11.58477 L1.3512 11.23358 L1.10138 10.86597 L0.87513 10.48341 L0.67335 10.08739 L0.49683 9.67948 L0.34628 9.2613 L0.22227 8.83448 L0.12532 8.40072 L0.05579 7.96173 L0.01396 7.51924 L0 7.075 L0.01396 6.63076 L0.05579 6.18827 L0.12532 5.74928 L0.22227 5.31552 L0.34628 4.8887 L0.49683 4.47052 L0.67335 4.06261 L0.87513 3.66659 L1.10138 3.28403 L1.3512 2.91642 L1.62362 2.56523 L1.91755 2.23183 L2.23183 1.91755 L2.56523 1.62362 L2.91642 1.3512 L3.28403 1.10138 L3.66659 0.87513 L4.06261 0.67335 L4.47052 0.49683 L4.8887 0.34628 L5.31552 0.22227 L5.74928 0.12532 L6.18827 0.05579 L6.63076 0.01396 L7.075 0 L7.51924 0.01396 L7.96173 0.05579 L8.40072 0.12532 L8.83448 0.22227 L9.2613 0.34628 L9.67948 0.49683 L10.08739 0.67335 L10.48341 0.87513 L10.86597 1.10138 L11.23358 1.3512 L11.58477 1.62362 L11.91817 1.91755 L12.23245 2.23183 L12.52638 2.56523 L12.7988 2.91642 L13.04862 3.28403 L13.27487 3.66659 L13.47665 4.06261 L13.65317 4.47052 L13.80372 4.8887 L13.92773 5.31552 L14.02468 5.74928 L14.09421 6.18827 L14.13604 6.63076 L14.15 7.075 L14.13604 7.51924 L14.09421 7.96173 L14.02468 8.40072 L13.92773 8.83448 L13.80372 9.2613 L13.65317 9.67948 L13.47665 10.08739 L13.27487 10.48341 L13.04862 10.86597 L12.7988 11.23358 L12.52638 11.58477 L12.23245 11.91817 L11.91817 12.23245 L11.58477 12.52638 L11.23358 12.7988 L10.86597 13.04862 L10.48341 13.27487 L10.08739 13.47665 L9.67948 13.65317 L9.2613 13.80372 L8.83448 13.92773 L8.40072 14.02468 L7.96173 14.09421 L7.51924 14.13604 M6.14522 10.96086 L6.26981 10.99312 L6.67033 11.05448 L7.075 11.075 L7.47967 11.05448 L7.88019 10.99312 L8.27245 10.89156 L8.65242 10.75083 L9.01621 10.57239 L9.36007 10.35805 L9.68049 10.11003 L9.97417 9.83087 L10.2381 9.52342 L10.46958 9.19086 L10.66622 8.83658 L10.82601 8.46422 L10.94731 8.07761 L11.02887 7.68071 L11.04611 7.51126 L11.06987 7.2776 L11.06987 6.8724 L11.02887 6.46929 L10.94731 6.07239 L10.82601 5.68578 L10.66622 5.31342 L10.62605 5.24105 L10.46958 4.95914 L10.2381 4.62658 L9.97417 4.31913 L9.68049 4.03997 L9.36007 3.79195 L9.01621 3.57761 L8.65242 3.39917 L8.27245 3.25844 L7.88019 3.15688 L7.47967 3.09552 L7.075 3.075 L6.67033 3.09552 L6.26981 3.15688 L5.87755 3.25844 L5.74373 3.30801 L5.49758 3.39917 L5.13379 3.57761 L4.98945 3.66758 L4.78993 3.79195 L4.46951 4.03997 L4.17583 4.31913 L3.9119 4.62658 L3.68042 4.95914 L3.60604 5.09316 L3.48378 5.31342 L3.32399 5.68578 L3.20269 6.07239 L3.12113 6.46929 L3.08013 6.8724 L3.08013 7.2776 L3.12113 7.68071 L3.20269 8.07761 L3.32399 8.46422 L3.48378 8.83658 L3.68042 9.19086 L3.9119 9.52342 L4.17583 9.83087 L4.46951 10.11003 L4.78993 10.35805 L5.13379 10.57239 L5.49758 10.75083 L5.87755 10.89156 z"/>
<path fill="#00ffff" stroke="#00ffff" d="M7.075 14.150000000000004 L7.075 14.150000000000004 L7.519239974744802 14.13603919636658 L7.519239974744802 14.13603919636658 z"/>
<path fill="#00ffff" stroke="#00ffff" d="M8.400720622688324 14.024682785747425 L8.400720622688324 14.024682785747425 L8.83447916498577 13.927726264361082 L8.83447916498577 13.927726264361082 z"/>
<path fill="#00ffff" stroke="#00ffff" d="M9.261300929254041 13.803723198513392 L9.261300929254041 13.803723198513392 L8.834478966249984 13.927726441809108 L8.834478966249984 13.927726441809108 z"/>
<path fill="#00ffff" stroke="#00ffff" d="M7.961730297884641 14.094211880769604 L7.961730297884641 14.094211880769604 L8.40072042373829 14.024682675378276 L8.40072042373829 14.024682675378276 z"/>
<path fill="#00ffff" stroke="#00ffff" d="M7.961730164911366 14.09421174458002 L7.961730164911366 14.09421174458002 L7.519239941929336 14.136039385676549 L7.519239941929336 14.136039385676549 z"/>
<path fill="#00ffff" stroke="#00ffff" d="M9.6794797046732 13.653169179698258 L9.6794797046732 13.653169179698258 L9.261300999912878 13.803722777364865 L9.261300999912878 13.803722777364865 z"/>
<path fill="#00ffff" stroke="#00ffff" d="M10.087390270381615 13.47665062481505 L10.087390270381615 13.47665062481505 L9.679479694335717 13.653169293651517 L9.679479694335717 13.653169293651517 z"/>
<path fill="#00ffff" stroke="#00ffff" d="M10.087390253102734 13.476650496742087 L10.087390253102734 13.476650496742087 L10.483409335471654 13.27486869578969 L10.483409335471654 13.27486869578969 z"/>
<path fill="#00ffff" stroke="#00ffff" d="M11.918171846212367 12.232452094116871 L11.918171846212367 12.232452094116871 L11.584772659098517 12.526383016155215 L11.584772659098517 12.526383016155215 z"/>
<path fill="#00ffff" stroke="#00ffff" d="M11.233577940369598 12.798797344740485 L11.233577940369598 12.798797344740485 L11.584772353483642 12.526383034092827 L11.584772353483642 12.526383034092827 z"/>
<path fill="#00ffff" stroke="#00ffff" d="M10.8659712173059 13.048622058351862 L10.8659712173059 13.048622058351862 L10.48340918134376 13.274868615727897 L10.48340918134376 13.274868615727897 z"/>
<path fill="#00ffff" stroke="#00ffff" d="M10.865971479152456 13.048622176506743 L10.865971479152456 13.048622176506743 L11.233577993410965 12.798797047393897 L11.233577993410965 12.798797047393897 z"/>
<path fill="#00ffff" stroke="#00ffff" d="M12.232451906725982 11.918171906725982 L12.232451906725982 11.918171906725982 L11.918171906725982 12.232451906725982 L11.918171906725982 12.232451906725982 z"/>
<path fill="#00ffff" stroke="#00ffff" d="M12.526383016155215 11.584772659098515 L12.526383016155215 11.584772659098515 L12.232452094116871 11.918171846212367 L12.232452094116871 11.918171846212367 z"/>
<path fill="#00ffff" stroke="#00ffff" d="M12.798797344740485 11.233577940369598 L12.798797344740485 11.233577940369598 L12.526383034092827 11.584772353483642 L12.526383034092827 11.584772353483642 z"/>
<path fill="#00ffff" stroke="#00ffff" d="M13.27486869578969 10.483409335471654 L13.27486869578969 10.483409335471654 L13.476650496742087 10.087390253102734 L13.476650496742087 10.087390253102734 z"/>
<path fill="#00ffff" stroke="#00ffff" d="M13.048622176506743 10.865971479152456 L13.048622176506743 10.865971479152456 L12.798797047393895 11.233577993410963 L12.798797047393895 11.233577993410963 z"/>
<path fill="#00ffff" stroke="#00ffff" d="M13.048622058351862 10.865971217305898 L13.048622058351862 10.865971217305898 L13.274868615727897 10.48340918134376 L13.274868615727897 10.48340918134376 z"/>
<path fill="#00ffff" stroke="#00ffff" d="M13.653169179698258 9.6794797046732 L13.653169179698258 9.6794797046732 L13.803722777364865 9.261300999912878 L13.803722777364865 9.261300999912878 z"/>
<path fill="#00ffff" stroke="#00ffff" d="M13.653169293651517 9.679479694335717 L13.653169293651517 9.679479694335717 L13.476650624815049 10.087390270381615 L13.476650624815049 10.087390270381615 z"/>
<path fill="#00ffff" stroke="#00ffff" d="M14.024682785747425 8.400720622688324 L14.024682785747425 8.400720622688324 L13.927726264361084 8.83447916498577 L13.927726264361084 8.83447916498577 z"/>
<path fill="#00ffff" stroke="#00ffff" d="M13.927726441809108 8.834478966249984 L13.927726441809108 8.834478966249984 L13.803723198513392 9.261300929254041 L13.803723198513392 9.261300929254041 z"/>
<path fill="#00ffff" stroke="#00ffff" d="M14.094211880769604 7.961730297884641 L14.094211880769604 7.961730297884641 L14.024682675378276 8.40072042373829 L14.024682675378276 8.40072042373829 z"/>
<path fill="#00ffff" stroke="#00ffff" d="M14.136039385676549 7.519239941929336 L14.136039385676549 7.519239941929336 L14.09421174458002 7.961730164911366 L14.09421174458002 7.961730164911366 z"/>
<path fill="#00ffff" stroke="#00ffff" d="M14.150000000000004 7.075 L14.150000000000004 7.075 L14.136039196366582 7.519239974744802 L14.136039196366582 7.519239974744802 z"/>
<path fill="#00ffff" stroke="#00ffff" d="M14.13603919636658 6.6307600252551975 L14.13603919636658 6.6307600252551975 L14.150000000000002 7.074999999999999 L14.150000000000002 7.074999999999999 z"/>
<path fill="#00ffff" stroke="#00ffff" d="M14.094211744580019 6.188269835088634 L14.094211744580019 6.188269835088634 L14.136039385676547 6.630760058070663 L14.136039385676547 6.630760058070663 z"/>
<path fill="#00ffff" stroke="#00ffff" d="M12.798797047393894 2.9164220065890376 L12.798797047393894 2.9164220065890376 L13.04862217650674 3.284028520847546 L13.04862217650674 3.284028520847546 z"/>
<path fill="#00ffff" stroke="#00ffff" d="M13.274868615727893 3.6665908186562413 L13.274868615727893 3.6665908186562413 L13.04862205835186 3.284028782694103 L13.04862205835186 3.284028782694103 z"/>
<path fill="#00ffff" stroke="#00ffff" d="M14.024682675378275 5.749279576261708 L14.024682675378275 5.749279576261708 L14.094211880769603 6.188269702115359 L14.094211880769603 6.188269702115359 z"/>
<path fill="#00ffff" stroke="#00ffff" d="M13.92772626436108 5.315520835014229 L13.92772626436108 5.315520835014229 L14.024682785747423 5.749279377311676 L14.024682785747423 5.749279377311676 z"/>
<path fill="#00ffff" stroke="#00ffff" d="M13.80372319851339 4.888699070745957 L13.80372319851339 4.888699070745957 L13.927726441809106 5.315521033750016 L13.927726441809106 5.315521033750016 z"/>
<path fill="#00ffff" stroke="#00ffff" d="M13.476650624815047 4.0626097296183845 L13.476650624815047 4.0626097296183845 L13.653169293651514 4.470520305664283 L13.653169293651514 4.470520305664283 z"/>
<path fill="#00ffff" stroke="#00ffff" d="M13.653169179698256 4.470520295326798 L13.653169179698256 4.470520295326798 L13.803722777364863 4.888699000087122 L13.803722777364863 4.888699000087122 z"/>
<path fill="#00ffff" stroke="#00ffff" d="M13.476650496742083 4.062609746897266 L13.476650496742083 4.062609746897266 L13.274868695789687 3.666590664528345 L13.274868695789687 3.666590664528345 z"/>
<path fill="#00ffff" stroke="#00ffff" d="M12.526383034092824 2.5652276465163606 L12.526383034092824 2.5652276465163606 L12.798797344740482 2.9164220596304045 L12.798797344740482 2.9164220596304045 z"/>
<path fill="#00ffff" stroke="#00ffff" d="M12.526383016155213 2.5652273409014863 L12.526383016155213 2.5652273409014863 L12.232452094116866 2.2318281537876348 L12.232452094116866 2.2318281537876348 z"/>
<path fill="#00ffff" stroke="#00ffff" d="M11.584772659098512 1.6236169838447876 L11.584772659098512 1.6236169838447876 L11.918171846212363 1.9175479058831326 L11.918171846212363 1.9175479058831326 z"/>
<path fill="#00ffff" stroke="#00ffff" d="M11.918171906725979 1.9175480932740203 L11.918171906725979 1.9175480932740203 L12.232451906725979 2.2318280932740207 L12.232451906725979 2.2318280932740207 z"/>
<path fill="#00ffff" stroke="#00ffff" d="M11.233577940369594 1.351202655259519 L11.233577940369594 1.351202655259519 L11.584772353483638 1.6236169659071762 L11.584772353483638 1.6236169659071762 z"/>
<path fill="#00ffff" stroke="#00ffff" d="M10.865971479152451 1.1013778234932616 L10.865971479152451 1.1013778234932616 L11.23357799341096 1.3512029526061082 L11.23357799341096 1.3512029526061082 z"/>
<path fill="#00ffff" stroke="#00ffff" d="M10.087390270381611 0.6733493751849557 L10.087390270381611 0.6733493751849557 L9.679479694335713 0.4968307063484881 L9.679479694335713 0.4968307063484881 z"/>
<path fill="#00ffff" stroke="#00ffff" d="M10.483409181343756 0.8751313842721076 L10.483409181343756 0.8751313842721076 L10.865971217305894 1.1013779416481428 L10.865971217305894 1.1013779416481428 z"/>
<path fill="#00ffff" stroke="#00ffff" d="M10.483409335471652 0.8751313042103138 L10.483409335471652 0.8751313042103138 L10.08739025310273 0.6733495032579186 L10.08739025310273 0.6733495032579186 z"/>
<path fill="#00ffff" stroke="#00ffff" d="M9.261300999912876 0.3462772226351411 L9.261300999912876 0.3462772226351411 L9.679479704673197 0.49683082030174724 L9.679479704673197 0.49683082030174724 z"/>
<path fill="#00ffff" stroke="#00ffff" d="M8.834478966249982 0.22227355819089734 L8.834478966249982 0.22227355819089734 L9.26130092925404 0.34627680148661344 L9.26130092925404 0.34627680148661344 z"/>
<path fill="#00ffff" stroke="#00ffff" d="M8.400720622688322 0.12531721425258077 L8.400720622688322 0.12531721425258077 L8.834479164985769 0.22227373563892305 L8.834479164985769 0.22227373563892305 z"/>
<path fill="#00ffff" stroke="#00ffff" d="M4.470520305664286 0.4968307063484914 L4.470520305664286 0.4968307063484914 L4.062609729618387 0.6733493751849585 L4.062609729618387 0.6733493751849585 z"/>
<path fill="#00ffff" stroke="#00ffff" d="M7.96173029788464 0.05578811923040173 L7.96173029788464 0.05578811923040173 L8.400720423738289 0.1253173246217303 L8.400720423738289 0.1253173246217303 z"/>
<path fill="#00ffff" stroke="#00ffff" d="M7.519239941929335 0.013960614323458307 L7.519239941929335 0.013960614323458307 L7.961730164911365 0.055788255419986076 L7.961730164911365 0.055788255419986076 z"/>
<path fill="#00ffff" stroke="#00ffff" d="M6.630760058070664 0.01396061432345906 L6.630760058070664 0.01396061432345906 L6.188269835088635 0.055788255419986964 L6.188269835088635 0.055788255419986964 z"/>
<path fill="#00ffff" stroke="#00ffff" d="M7.075 3.822310447469253e-15 L7.075 3.822310447469253e-15 L6.6307600252551975 0.013960803633425112 L6.6307600252551975 0.013960803633425112 z"/>
<path fill="#00ffff" stroke="#00ffff" d="M7.074999999999999 3.2761064412268634e-15 L7.074999999999999 3.2761064412268634e-15 L7.519239974744802 0.013960803633425452 L7.519239974744802 0.013960803633425452 z"/>
<path fill="#00ffff" stroke="#00ffff" d="M5.749279576261709 0.12531732462173076 L5.749279576261709 0.12531732462173076 L6.18826970211536 0.055788119230403777 L6.18826970211536 0.055788119230403777 z"/>
<path fill="#00ffff" stroke="#00ffff" d="M5.3155208350142304 0.2222737356389252 L5.3155208350142304 0.2222737356389252 L5.749279377311677 0.12531721425258244 L5.749279377311677 0.12531721425258244 z"/>
<path fill="#00ffff" stroke="#00ffff" d="M4.88869907074596 0.34627680148661516 L4.88869907074596 0.34627680148661516 L5.315521033750017 0.22227355819090053 L5.315521033750017 0.22227355819090053 z"/>
<path fill="#00ffff" stroke="#00ffff" d="M4.888699000087124 0.3462772226351439 L4.888699000087124 0.3462772226351439 L4.470520295326801 0.49683082030174963 L4.470520295326801 0.49683082030174963 z"/>
<path fill="#00ffff" stroke="#00ffff" d="M3.6665906645283477 0.8751313042103174 L3.6665906645283477 0.8751313042103174 L4.0626097468972695 0.6733495032579224 L4.0626097468972695 0.6733495032579224 z"/>
<path fill="#00ffff" stroke="#00ffff" d="M3.2840287826941066 1.1013779416481455 L3.2840287826941066 1.1013779416481455 L3.6665908186562444 0.8751313842721119 L3.6665908186562444 0.8751313842721119 z"/>
<path fill="#00ffff" stroke="#00ffff" d="M2.916422059630408 1.3512026552595227 L2.916422059630408 1.3512026552595227 L2.565227646516364 1.623616965907179 L2.565227646516364 1.623616965907179 z"/>
<path fill="#00ffff" stroke="#00ffff" d="M2.2318281537876383 1.9175479058831366 L2.2318281537876383 1.9175479058831366 L2.5652273409014903 1.6236169838447911 L2.5652273409014903 1.6236169838447911 z"/>
<path fill="#00ffff" stroke="#00ffff" d="M2.9164220065890407 1.351202952606111 L2.9164220065890407 1.351202952606111 L3.28402852084755 1.1013778234932652 L3.28402852084755 1.1013778234932652 z"/>
<path fill="#00ffff" stroke="#00ffff" d="M1.9175480932740236 2.2318280932740233 L1.9175480932740236 2.2318280932740233 L2.2318280932740246 1.917548093274025 L2.2318280932740246 1.917548093274025 z"/>
<path fill="#00ffff" stroke="#00ffff" d="M1.623616983844791 2.5652273409014903 L1.623616983844791 2.5652273409014903 L1.9175479058831364 2.2318281537876383 L1.9175479058831364 2.2318281537876383 z"/>
<path fill="#00ffff" stroke="#00ffff" d="M0.34627680148661577 4.88869907074596 L0.34627680148661577 4.88869907074596 L0.22227355819090022 5.315521033750017 L0.22227355819090022 5.315521033750017 z"/>
<path fill="#00ffff" stroke="#00ffff" d="M1.1013778234932636 3.2840285208475493 L1.1013778234932636 3.2840285208475493 L1.3512029526061116 2.916422006589041 L1.3512029526061116 2.916422006589041 z"/>
<path fill="#00ffff" stroke="#00ffff" d="M1.3512026552595218 2.9164220596304076 L1.3512026552595218 2.9164220596304076 L1.6236169659071804 2.565227646516365 L1.6236169659071804 2.565227646516365 z"/>
<path fill="#00ffff" stroke="#00ffff" d="M0.875131384272111 3.666590818656244 L0.875131384272111 3.666590818656244 L1.1013779416481455 3.2840287826941066 L1.1013779416481455 3.2840287826941066 z"/>
<path fill="#00ffff" stroke="#00ffff" d="M0.6733495032579214 4.062609746897269 L0.6733495032579214 4.062609746897269 L0.8751313042103178 3.666590664528348 L0.8751313042103178 3.666590664528348 z"/>
<path fill="#00ffff" stroke="#00ffff" d="M0.49683070634848997 4.4705203056642855 L0.49683070634848997 4.4705203056642855 L0.6733493751849592 4.062609729618387 L0.6733493751849592 4.062609729618387 z"/>
<path fill="#00ffff" stroke="#00ffff" d="M0.49683082030174974 4.470520295326802 L0.49683082030174974 4.470520295326802 L0.3462772226351429 4.888699000087124 L0.3462772226351429 4.888699000087124 z"/>
<path fill="#00ffff" stroke="#00ffff" d="M0.12531721425258283 5.749279377311677 L0.12531721425258283 5.749279377311677 L0.22227373563892652 5.3155208350142304 L0.22227373563892652 5.3155208350142304 z"/>
<path fill="#00ffff" stroke="#00ffff" d="M4.155364323828669e-15 7.074999999999999 L4.155364323828669e-15 7.074999999999999 L0.013960803633424506 7.519239974744802 L0.013960803633424506 7.519239974744802 z"/>
<path fill="#00ffff" stroke="#00ffff" d="M0.013960614323458053 6.630760058070664 L0.013960614323458053 6.630760058070664 L0.055788255419987304 6.188269835088635 L0.055788255419987304 6.188269835088635 z"/>
<path fill="#00ffff" stroke="#00ffff" d="M0.05578811923040258 6.18826970211536 L0.05578811923040258 6.18826970211536 L0.1253173246217328 5.74927957626171 L0.1253173246217328 5.74927957626171 z"/>
<path fill="#00ffff" stroke="#00ffff" d="M0.013960803633425958 6.6307600252551975 L0.013960803633425958 6.6307600252551975 L2.9430525648673486e-15 7.075 L2.9430525648673486e-15 7.075 z"/>
<path fill="#00ffff" stroke="#00ffff" d="M0.0557882554199859 7.961730164911365 L0.0557882554199859 7.961730164911365 L0.013960614323459021 7.519239941929335 L0.013960614323459021 7.519239941929335 z"/>
<path fill="#00ffff" stroke="#00ffff" d="M0.12531732462172976 8.400720423738289 L0.12531732462172976 8.400720423738289 L0.055788119230403194 7.96173029788464 L0.055788119230403194 7.96173029788464 z"/>
<path fill="#00ffff" stroke="#00ffff" d="M0.4968307063484889 9.679479694335713 L0.4968307063484889 9.679479694335713 L0.6733493751849554 10.087390270381613 L0.6733493751849554 10.087390270381613 z"/>
<path fill="#00ffff" stroke="#00ffff" d="M0.22227355819089847 8.83447896624998 L0.22227355819089847 8.83447896624998 L0.3462768014866124 9.26130092925404 L0.3462768014866124 9.26130092925404 z"/>
<path fill="#00ffff" stroke="#00ffff" d="M0.3462772226351417 9.261300999912876 L0.3462772226351417 9.261300999912876 L0.4968308203017465 9.679479704673199 L0.4968308203017465 9.679479704673199 z"/>
<path fill="#00ffff" stroke="#00ffff" d="M0.2222737356389224 8.834479164985769 L0.2222737356389224 8.834479164985769 L0.12531721425258174 8.400720622688322 L0.12531721425258174 8.400720622688322 z"/>
<path fill="#00ffff" stroke="#00ffff" d="M0.8751313042103137 10.483409335471652 L0.8751313042103137 10.483409335471652 L0.6733495032579196 10.08739025310273 L0.6733495032579196 10.08739025310273 z"/>
<path fill="#00ffff" stroke="#00ffff" d="M0.875131384272109 10.483409181343754 L0.875131384272109 10.483409181343754 L1.101377941648142 10.865971217305896 L1.101377941648142 10.865971217305896 z"/>
<path fill="#00ffff" stroke="#00ffff" d="M1.9175480932740212 11.918171906725977 L1.9175480932740212 11.918171906725977 L2.2318280932740198 12.232451906725979 L2.2318280932740198 12.232451906725979 z"/>
<path fill="#00ffff" stroke="#00ffff" d="M1.6236169659071753 11.584772353483638 L1.6236169659071753 11.584772353483638 L1.3512026552595189 11.233577940369594 L1.3512026552595189 11.233577940369594 z"/>
<path fill="#00ffff" stroke="#00ffff" d="M1.3512029526061065 11.233577993410961 L1.3512029526061065 11.233577993410961 L1.1013778234932623 10.865971479152451 L1.1013778234932623 10.865971479152451 z"/>
<path fill="#00ffff" stroke="#00ffff" d="M1.623616983844788 11.584772659098512 L1.623616983844788 11.584772659098512 L1.9175479058831322 11.918171846212365 L1.9175479058831322 11.918171846212365 z"/>
<path fill="#00ffff" stroke="#00ffff" d="M2.565227340901486 12.526383016155213 L2.565227340901486 12.526383016155213 L2.2318281537876357 12.232452094116866 L2.2318281537876357 12.232452094116866 z"/>
<path fill="#00ffff" stroke="#00ffff" d="M2.5652276465163615 12.526383034092824 L2.5652276465163615 12.526383034092824 L2.916422059630404 12.798797344740482 L2.916422059630404 12.798797344740482 z"/>
<path fill="#00ffff" stroke="#00ffff" d="M3.2840285208475453 13.04862217650674 L3.2840285208475453 13.04862217650674 L2.9164220065890385 12.798797047393892 L2.9164220065890385 12.798797047393892 z"/>
<path fill="#00ffff" stroke="#00ffff" d="M3.666590818656241 13.274868615727893 L3.666590818656241 13.274868615727893 L3.2840287826941035 13.048622058351858 L3.2840287826941035 13.048622058351858 z"/>
<path fill="#00ffff" stroke="#00ffff" d="M4.062609746897266 13.476650496742083 L4.062609746897266 13.476650496742083 L3.6665906645283455 13.274868695789685 L3.6665906645283455 13.274868695789685 z"/>
<path fill="#00ffff" stroke="#00ffff" d="M4.0626097296183845 13.476650624815045 L4.0626097296183845 13.476650624815045 L4.470520305664283 13.653169293651516 L4.470520305664283 13.653169293651516 z"/>
<path fill="#00ffff" stroke="#00ffff" d="M4.888699000087121 13.803722777364863 L4.888699000087121 13.803722777364863 L4.470520295326799 13.653169179698255 L4.470520295326799 13.653169179698255 z"/>
<path fill="#00ffff" stroke="#00ffff" d="M5.315521033750016 13.927726441809106 L5.315521033750016 13.927726441809106 L4.888699070745958 13.80372319851339 L4.888699070745958 13.80372319851339 z"/>
<path fill="#00ffff" stroke="#00ffff" d="M5.749279377311675 14.024682785747425 L5.749279377311675 14.024682785747425 L5.315520835014229 13.92772626436108 L5.315520835014229 13.92772626436108 z"/>
<path fill="#00ffff" stroke="#00ffff" d="M6.188269702115359 14.094211880769604 L6.188269702115359 14.094211880769604 L5.749279576261708 14.024682675378275 L5.749279576261708 14.024682675378275 z"/>
<path fill="#00ffff" stroke="#00ffff" d="M6.630760058070663 14.136039385676549 L6.630760058070663 14.136039385676549 L6.188269835088634 14.094211744580019 L6.188269835088634 14.094211744580019 z"/>
<path fill="#00ffff" stroke="#00ffff" d="M6.6307600252551975 14.13603919636658 L6.6307600252551975 14.13603919636658 L7.074999999999999 14.150000000000002 L7.074999999999999 14.150000000000002 z"/>
<path fill="#00ffff" stroke="#00ffff" d="M6.18827 14.09421 L6.63076 14.13604 L7.075 14.15 L7.51924 14.13604 L7.96173 14.09421 L8.40072 14.02468 L8.83448 13.92773 L9.2613 13.80372 L9.67948 13.65317 L10.08739 13.47665 L10.48341 13.27487 L10.86597 13.04862 L11.23358 12.7988 L11.58477 12.52638 L11.91817 12.23245 L12.23245 11.91817 L12.52638 11.58477 L12.7988 11.23358 L13.04862 10.86597 L13.27487 10.48341 L13.47665 10.08739 L13.65317 9.67948 L13.80372 9.2613 L13.92773 8.83448 L14.02468 8.40072 L14.09421 7.96173 L14.13604 7.51924 L14.15 7.075 L14.13604 6.63076 L14.09421 6.18827 L14.02468 5.74928 L13.92773 5.31552 L13.80372 4.8887 L13.65317 4.47052 L13.47665 4.06261 L13.27487 3.66659 L13.04862 3.28403 L12.7988 2.91642 L12.52638 2.56523 L12.23245 2.23183 L11.91817 1.91755 L11.58477 1.62362 L11.23358 1.3512 L10.86597 1.10138 L10.48341 0.87513 L10.08739 0.67335 L9.67948 0.49683 L9.2613 0.34628 L8.83448 0.22227 L8.40072 0.12532 L7.96173 0.05579 L7.51924 0.01396 L7.075 0 L6.63076 0.01396 L6.18827 0.05579 L5.74928 0.12532 L5.31552 0.22227 L4.8887 0.34628 L4.47052 0.49683 L4.06261 0.67335 L3.66659 0.87513 L3.28403 1.10138 L2.91642 1.3512 L2.56523 1.62362 L2.23183 1.91755 L1.91755 2.23183 L1.62362 2.56523 L1.3512 2.91642 L1.10138 3.28403 L0.87513 3.66659 L0.67335 4.06261 L0.49683 4.47052 L0.34628 4.8887 L0.22227 5.31552 L0.12532 5.74928 L0.05579 6.18827 L0.01396 6.63076 L0 7.075 L0.01396 7.51924 L0.05579 7.96173 L0.12532 8.40072 L0.22227 8.83448 L0.34628 9.2613 L0.49683 9.67948 L0.67335 10.08739 L0.87513 10.48341 L1.10138 10.86597 L1.3512 11.23358 L1.62362 11.58477 L1.91755 11.91817 L2.23183 12.23245 L2.56523 12.52638 L2.91642 12.7988 L3.28403 13.04862 L3.66659 13.27487 L4.06261 13.47665 L4.47052 13.65317 L4.8887 13.80372 L5.31552 13.92773 L5.74928 14.02468 M6.26981 10.99312 L6.14522 10.96086 L5.87755 10.89156 L5.49758 10.75083 L5.13379 10.57239 L4.78993 10.35805 L4.46951 10.11003 L4.17583 9.83087 L3.9119 9.52342 L3.68042 9.19086 L3.48378 8.83658 L3.32399 8.46422 L3.20269 8.07761 L3.12113 7.68071 L3.08013 7.2776 L3.08013 6.8724 L3.12113 6.46929 L3.20269 6.07239 L3.32399 5.68578 L3.48378 5.31342 L3.60604 5.09316 L3.68042 4.95914 L3.9119 4.62658 L4.17583 4.31913 L4.46951 4.03997 L4.78993 3.79195 L4.98945 3.66758 L5.13379 3.57761 L5.49758 3.39917 L5.74373 3.30801 L5.87755 3.25844 L6.26981 3.15688 L6.67033 3.09552 L7.075 3.075 L7.47967 3.09552 L7.88019 3.15688 L8.27245 3.25844 L8.65242 3.39917 L9.01621 3.57761 L9.36007 3.79195 L9.68049 4.03997 L9.97417 4.31913 L10.2381 4.62658 L10.46958 4.95914 L10.62605 5.24105 L10.66622 5.31342 L10.82601 5.68578 L10.94731 6.07239 L11.02887 6.46929 L11.06987 6.8724 L11.06987 7.2776 L11.04611 7.51126 L11.02887 7.68071 L10.94731 8.07761 L10.82601 8.46422 L10.66622 8.83658 L10.46958 9.19086 L10.2381 9.52342 L9.97417 9.83087 L9.68049 10.11003 L9.36007 10.35805 L9.01621 10.57239 L8.65242 10.75083 L8.27245 10.89156 L7.88019 10.99312 L7.47967 11.05448 L7.075 11.075 L6.67033 11.05448 z"/>
<path fill="#00ffff" stroke="#00ffff" d="M6.269809800665374 10.993120769875683 L6.269809800665374 10.993120769875683 L6.145219457557022 10.960862095038221 L5.8775505651836095 10.891557817132284 L5.8775505651836095 10.891557817132284 L6.145219457557022 10.960862095038221 z"/>
<path fill="#00ffff" stroke="#00ffff" d="M3.2026913510522013 8.077609576104637 L3.2026913510522013 8.077609576104637 L3.3239910506618795 8.464219670352707 L3.3239910506618795 8.464219670352707 z"/>
<path fill="#00ffff" stroke="#00ffff" d="M3.323991050661881 5.685780329647292 L3.323991050661881 5.685780329647292 L3.202691351052204 6.072390423895364 L3.202691351052204 6.072390423895364 z"/>
<path fill="#00ffff" stroke="#00ffff" d="M3.6804239502882905 4.95914219258887 L3.6804239502882905 4.95914219258887 L3.6060384701376273 5.093159150857111 L3.483782848011018 5.313421580775073 L3.483782848011018 5.313421580775073 L3.6060384701376273 5.093159150857111 z"/>
<path fill="#00ffff" stroke="#00ffff" d="M3.4837827851893897 5.313421195218898 L3.4837827851893897 5.313421195218898 L3.323990876062625 5.685780375948081 L3.323990876062625 5.685780375948081 z"/>
<path fill="#00ffff" stroke="#00ffff" d="M5.133791814824795 10.572386300228027 L5.133791814824795 10.572386300228027 L5.497578843769883 10.750832357135405 L5.497578843769883 10.750832357135405 z"/>
<path fill="#00ffff" stroke="#00ffff" d="M3.080134265292332 7.277599566262163 L3.080134265292332 7.277599566262163 L3.1211266247131264 7.680710343233128 L3.1211266247131264 7.680710343233128 z"/>
<path fill="#00ffff" stroke="#00ffff" d="M3.1211266247131264 6.469289656766872 L3.1211266247131264 6.469289656766872 L3.0801342652923336 6.872400433737837 L3.0801342652923336 6.872400433737837 z"/>
<path fill="#00ffff" stroke="#00ffff" d="M3.1211266174271577 6.46928930486361 L3.1211266174271577 6.46928930486361 L3.2026914373165223 6.072390295376054 L3.2026914373165223 6.072390295376054 z"/>
<path fill="#00ffff" stroke="#00ffff" d="M3.680423856898447 9.190857315519452 L3.680423856898447 9.190857315519452 L3.9118961714676046 9.523422664737192 L3.9118961714676046 9.523422664737192 z"/>
<path fill="#00ffff" stroke="#00ffff" d="M3.1211266174271555 7.680710695136391 L3.1211266174271555 7.680710695136391 L3.2026914373165214 8.077609704623946 L3.2026914373165214 8.077609704623946 z"/>
<path fill="#00ffff" stroke="#00ffff" d="M3.0801339713157927 7.277599999999999 L3.0801339713157927 7.277599999999999 L3.080133971315792 6.872399999999999 L3.080133971315792 6.872399999999999 z"/>
<path fill="#00ffff" stroke="#00ffff" d="M4.789927509617212 10.358053995449614 L4.789927509617212 10.358053995449614 L5.133792188600314 10.57238648871558 L5.133792188600314 10.57238648871558 z"/>
<path fill="#00ffff" stroke="#00ffff" d="M3.4837827851893874 8.836578804781102 L3.4837827851893874 8.836578804781102 L3.3239908760626213 8.46421962405192 L3.3239908760626213 8.46421962405192 z"/>
<path fill="#00ffff" stroke="#00ffff" d="M3.6804239502882883 9.19085780741113 L3.6804239502882883 9.19085780741113 L3.483782848011014 8.836578419224928 L3.483782848011014 8.836578419224928 z"/>
<path fill="#00ffff" stroke="#00ffff" d="M4.175830487003392 9.830869581921302 L4.175830487003392 9.830869581921302 L3.9118963605044432 9.52342312440445 L3.9118963605044432 9.52342312440445 z"/>
<path fill="#00ffff" stroke="#00ffff" d="M4.469508789018207 10.11003127395212 L4.469508789018207 10.11003127395212 L4.175830614994995 9.830869353025633 L4.175830614994995 9.830869353025633 z"/>
<path fill="#00ffff" stroke="#00ffff" d="M4.7899271059686 10.358053738780338 L4.7899271059686 10.358053738780338 L4.4695088202648305 10.11003152409219 L4.4695088202648305 10.11003152409219 z"/>
<path fill="#00ffff" stroke="#00ffff" d="M5.877550668146567 10.891558195950498 L5.877550668146567 10.891558195950498 L5.497579181460027 10.750832210123797 L5.497579181460027 10.750832210123797 z"/>
<path fill="#00ffff" stroke="#00ffff" d="M9.360072490382786 3.791946004550387 L9.360072490382786 3.791946004550387 L9.016207811399683 3.5776135112844205 L9.016207811399683 3.5776135112844205 z"/>
<path fill="#00ffff" stroke="#00ffff" d="M10.238103639495556 4.626576875595546 L10.238103639495556 4.626576875595546 L9.974169512996609 4.319130418078697 L9.974169512996609 4.319130418078697 z"/>
<path fill="#00ffff" stroke="#00ffff" d="M10.469576143101554 4.959142684480546 L10.469576143101554 4.959142684480546 L10.238103828532395 4.626577335262805 L10.238103828532395 4.626577335262805 z"/>
<path fill="#00ffff" stroke="#00ffff" d="M10.469576049711714 4.9591421925888675 L10.469576049711714 4.9591421925888675 L10.626048201678957 5.241050998149607 L10.666217151988986 5.313421580775069 L10.666217151988986 5.313421580775069 L10.626048201678957 5.241050998149607 z"/>
<path fill="#00ffff" stroke="#00ffff" d="M9.680491210981792 4.039968726047878 L9.680491210981792 4.039968726047878 L9.974169385005005 4.319130646974368 L9.974169385005005 4.319130646974368 z"/>
<path fill="#00ffff" stroke="#00ffff" d="M7.880190199334623 3.1568792301243214 L7.880190199334623 3.1568792301243214 L8.272449434816387 3.25844218286772 L8.272449434816387 3.25844218286772 z"/>
<path fill="#00ffff" stroke="#00ffff" d="M9.360072894031399 3.791946261219661 L9.360072894031399 3.791946261219661 L9.680491179735167 4.039968475907812 L9.680491179735167 4.039968475907812 z"/>
<path fill="#00ffff" stroke="#00ffff" d="M8.652421156230114 3.3991676428645956 L8.652421156230114 3.3991676428645956 L9.016208185175202 3.577613699771976 L9.016208185175202 3.577613699771976 z"/>
<path fill="#00ffff" stroke="#00ffff" d="M8.27244933185343 3.2584418040495042 L8.27244933185343 3.2584418040495042 L8.65242081853997 3.3991677898762074 L8.65242081853997 3.3991677898762074 z"/>
<path fill="#00ffff" stroke="#00ffff" d="M7.479669670290878 3.095522152227471 L7.479669670290878 3.095522152227471 L7.880190058390374 3.1568796188477624 L7.880190058390374 3.1568796188477624 z"/>
<path fill="#00ffff" stroke="#00ffff" d="M7.074999999999999 3.0750000000000033 L7.074999999999999 3.0750000000000033 L7.4796698715320895 3.0955225331713296 L7.4796698715320895 3.0955225331713296 z"/>
<path fill="#00ffff" stroke="#00ffff" d="M6.670330128467909 3.0955225331713296 L6.670330128467909 3.0955225331713296 L7.075 3.0750000000000037 L7.075 3.0750000000000037 z"/>
<path fill="#00ffff" stroke="#00ffff" d="M6.2698099416096245 3.1568796188477637 L6.2698099416096245 3.1568796188477637 L6.670330329709121 3.095522152227472 L6.670330329709121 3.095522152227472 z"/>
<path fill="#00ffff" stroke="#00ffff" d="M5.877550565183611 3.258442182867722 L5.877550565183611 3.258442182867722 L6.269809800665376 3.156879230124323 L6.269809800665376 3.156879230124323 z"/>
<path fill="#00ffff" stroke="#00ffff" d="M5.8775506681465695 3.2584418040495065 L5.8775506681465695 3.2584418040495065 L5.743727895172924 3.3080043167975095 L5.49757918146003 3.39916778987621 L5.49757918146003 3.39916778987621 L5.743727895172924 3.3080043167975095 z"/>
<path fill="#00ffff" stroke="#00ffff" d="M4.789927509617216 3.79194600455039 L4.789927509617216 3.79194600455039 L4.989451205469812 3.6675819339974245 L5.133792188600316 3.577613511284424 L5.133792188600316 3.577613511284424 L4.989451205469812 3.6675819339974245 z"/>
<path fill="#00ffff" stroke="#00ffff" d="M11.069866028684213 6.8724 L11.069866028684213 6.8724 L11.069866028684215 7.2776 L11.069866028684215 7.2776 z"/>
<path fill="#00ffff" stroke="#00ffff" d="M11.069865734707674 7.277599566262164 L11.069865734707674 7.277599566262164 L11.046104844307795 7.511259475717346 L11.02887337528688 7.6807103432331285 L11.02887337528688 7.6807103432331285 L11.046104844307795 7.511259475717346 z"/>
<path fill="#00ffff" stroke="#00ffff" d="M11.028873382572849 6.469289304863608 L11.028873382572849 6.469289304863608 L10.947308562683483 6.072390295376053 L10.947308562683483 6.072390295376053 z"/>
<path fill="#00ffff" stroke="#00ffff" d="M10.947308648947802 6.072390423895361 L10.947308648947802 6.072390423895361 L10.826008949338124 5.685780329647289 L10.826008949338124 5.685780329647289 z"/>
<path fill="#00ffff" stroke="#00ffff" d="M10.82600912393738 5.685780375948077 L10.82600912393738 5.685780375948077 L10.666217214810615 5.313421195218895 L10.666217214810615 5.313421195218895 z"/>
<path fill="#00ffff" stroke="#00ffff" d="M11.02887337528688 6.469289656766871 L11.02887337528688 6.469289656766871 L11.069865734707673 6.872400433737836 L11.069865734707673 6.872400433737836 z"/>
<path fill="#00ffff" stroke="#00ffff" d="M5.497578843769886 3.3991676428645983 L5.497578843769886 3.3991676428645983 L5.133791814824797 3.577613699771979 L5.133791814824797 3.577613699771979 z"/>
<path fill="#00ffff" stroke="#00ffff" d="M8.272449434816389 10.891557817132286 L8.272449434816389 10.891557817132286 L7.880190199334625 10.993120769875684 L7.880190199334625 10.993120769875684 z"/>
<path fill="#00ffff" stroke="#00ffff" d="M7.075 11.075000000000003 L7.075 11.075000000000003 L7.4796698715320895 11.054477466828677 L7.4796698715320895 11.054477466828677 z"/>
<path fill="#00ffff" stroke="#00ffff" d="M7.479669670290879 11.054477847772535 L7.479669670290879 11.054477847772535 L7.880190058390376 10.993120381152243 L7.880190058390376 10.993120381152243 z"/>
<path fill="#00ffff" stroke="#00ffff" d="M8.652420818539971 10.750832210123798 L8.652420818539971 10.750832210123798 L8.272449331853432 10.891558195950502 L8.272449331853432 10.891558195950502 z"/>
<path fill="#00ffff" stroke="#00ffff" d="M9.016208185175206 10.572386300228029 L9.016208185175206 10.572386300228029 L8.652421156230117 10.75083235713541 L8.652421156230117 10.75083235713541 z"/>
<path fill="#00ffff" stroke="#00ffff" d="M6.670330128467909 11.054477466828677 L6.670330128467909 11.054477466828677 L7.074999999999999 11.075000000000003 L7.074999999999999 11.075000000000003 z"/>
<path fill="#00ffff" stroke="#00ffff" d="M9.68049117973517 10.110031524092191 L9.68049117973517 10.110031524092191 L9.360072894031402 10.358053738780344 L9.360072894031402 10.358053738780344 z"/>
<path fill="#00ffff" stroke="#00ffff" d="M10.238103828532399 9.523422664737195 L10.238103828532399 9.523422664737195 L10.469576143101555 9.190857315519455 L10.469576143101555 9.190857315519455 z"/>
<path fill="#00ffff" stroke="#00ffff" d="M9.36007249038279 10.358053995449618 L9.36007249038279 10.358053995449618 L9.016207811399687 10.572386488715583 L9.016207811399687 10.572386488715583 z"/>
<path fill="#00ffff" stroke="#00ffff" d="M9.974169385005007 9.830869353025635 L9.974169385005007 9.830869353025635 L9.680491210981796 10.110031273952126 L9.680491210981796 10.110031273952126 z"/>
<path fill="#00ffff" stroke="#00ffff" d="M10.23810363949556 9.523423124404454 L10.23810363949556 9.523423124404454 L9.974169512996612 9.830869581921306 L9.974169512996612 9.830869581921306 z"/>
<path fill="#00ffff" stroke="#00ffff" d="M10.826008949338126 8.464219670352708 L10.826008949338126 8.464219670352708 L10.947308648947804 8.077609576104638 L10.947308648947804 8.077609576104638 z"/>
<path fill="#00ffff" stroke="#00ffff" d="M10.666217214810619 8.836578804781103 L10.666217214810619 8.836578804781103 L10.826009123937384 8.464219624051921 L10.826009123937384 8.464219624051921 z"/>
<path fill="#00ffff" stroke="#00ffff" d="M10.66621715198899 8.836578419224931 L10.66621715198899 8.836578419224931 L10.469576049711717 9.190857807411133 L10.469576049711717 9.190857807411133 z"/>
<path fill="#00ffff" stroke="#00ffff" d="M11.02887338257285 7.6807106951363915 L11.02887338257285 7.6807106951363915 L10.947308562683485 8.077609704623947 L10.947308562683485 8.077609704623947 z"/>
<path fill="#00ffff" stroke="#00ffff" d="M4.175830487003394 4.319130418078701 L4.175830487003394 4.319130418078701 L3.9118963605044477 4.626576875595551 L3.9118963605044477 4.626576875595551 z"/>
<path fill="#00ffff" stroke="#00ffff" d="M4.789927105968602 3.7919462612196644 L4.789927105968602 3.7919462612196644 L4.469508820264835 4.039968475907815 L4.469508820264835 4.039968475907815 z"/>
<path fill="#00ffff" stroke="#00ffff" d="M4.175830614994998 4.31913064697437 L4.175830614994998 4.31913064697437 L4.46950878901821 4.0399687260478805 L4.46950878901821 4.0399687260478805 z"/>
<path fill="#00ffff" stroke="#00ffff" d="M3.680423856898451 4.9591426844805495 L3.680423856898451 4.9591426844805495 L3.911896171467608 4.626577335262809 L3.911896171467608 4.626577335262809 z"/>
<path fill="#00ffff" stroke="#00ffff" d="M6.269809941609623 10.993120381152243 L6.269809941609623 10.993120381152243 L6.670330329709119 11.054477847772533 L6.670330329709119 11.054477847772533 z"/>
</svg>